<?xml version="1.0" encoding="UTF-8" standalone="no"?>
<!DOCTYPE svg PUBLIC "-//W3C//DTD SVG 1.1//EN"
 "http://www.w3.org/Graphics/SVG/1.1/DTD/svg11.dtd">
<!-- Generated by graphviz version 2.49.3 (20211023.0002)
 -->
<!-- Title: APImon Pages: 1 -->
<svg width="864pt" height="1182pt"
 viewBox="0.00 0.00 864.00 1182.00" xmlns="http://www.w3.org/2000/svg" xmlns:xlink="http://www.w3.org/1999/xlink">
<g id="graph0" class="graph" transform="scale(1 1) rotate(0) translate(144 1038)">
<title>APImon</title>
<text text-anchor="middle" x="288" y="-9" font-family="Sans-Serif" font-size="15.00" fill="#2d3436">APImon</text>
<g id="clust1" class="cluster">
<title>cluster_eu&#45;de</title>
<path fill="#e5f5fd" stroke="#aeb6be" d="M130,-481C130,-481 446,-481 446,-481 452,-481 458,-487 458,-493 458,-493 458,-874 458,-874 458,-880 452,-886 446,-886 446,-886 130,-886 130,-886 124,-886 118,-880 118,-874 118,-874 118,-493 118,-493 118,-487 124,-481 130,-481"/>
<text text-anchor="middle" x="141.5" y="-872.4" font-family="Sans-Serif" font-size="12.00" fill="#2d3436">eu&#45;de</text>
</g>
<g id="clust2" class="cluster">
<title>cluster_vcloud</title>
<path fill="#e5f5fd" stroke="#aeb6be" d="M130,-33C130,-33 446,-33 446,-33 452,-33 458,-39 458,-45 458,-45 458,-152 458,-152 458,-158 452,-164 446,-164 446,-164 130,-164 130,-164 124,-164 118,-158 118,-152 118,-152 118,-45 118,-45 118,-39 124,-33 130,-33"/>
<text text-anchor="middle" x="143.5" y="-150.4" font-family="Sans-Serif" font-size="12.00" fill="#2d3436">vcloud</text>
</g>
<!-- 9b8e0fa7e67c4933b26be33db00207c6 -->
<g id="node1" class="node">
<title>9b8e0fa7e67c4933b26be33db00207c6</title>
<g id="a_node1"><a xlink:href="https://zuul.otc-service.com" xlink:title="Ecosystem CI/CD">
<path fill="none" stroke="black" d="M60,-359C60,-359 12,-359 12,-359 6,-359 0,-353 0,-347 0,-347 0,-277 0,-277 0,-271 6,-265 12,-265 12,-265 60,-265 60,-265 66,-265 72,-271 72,-277 72,-277 72,-347 72,-347 72,-353 66,-359 60,-359"/>
<image xlink:href="/Users/gtema/workspace/otc/system-config/.tox/docs/lib/python3.8/site-packages/resources/onprem/ci/zuulci.png" width="72px" height="72px" preserveAspectRatio="xMinYMin meet" x="0" y="-348"/>
<text text-anchor="middle" x="36" y="-268.6" font-family="Sans-Serif" font-size="13.00" fill="#2d3436">zuul</text>
</a>
</g>
</g>
<!-- e48508c65dcc44f29db3d283ddcfd5c0 -->
<g id="node4" class="node">
<title>e48508c65dcc44f29db3d283ddcfd5c0</title>
<path fill="none" stroke="black" d="M186,-583C186,-583 138,-583 138,-583 132,-583 126,-577 126,-571 126,-571 126,-501 126,-501 126,-495 132,-489 138,-489 138,-489 186,-489 186,-489 192,-489 198,-495 198,-501 198,-501 198,-571 198,-571 198,-577 192,-583 186,-583"/>
<image xlink:href="/Users/gtema/workspace/otc/system-config/.tox/docs/lib/python3.8/site-packages/resources/onprem/compute/server.png" width="72px" height="72px" preserveAspectRatio="xMinYMin meet" x="126" y="-572"/>
<text text-anchor="middle" x="162" y="-492.6" font-family="Sans-Serif" font-size="13.00" fill="#2d3436">scheduler</text>
</g>
<!-- 9b8e0fa7e67c4933b26be33db00207c6&#45;&gt;e48508c65dcc44f29db3d283ddcfd5c0 -->
<g id="edge9" class="edge">
<title>9b8e0fa7e67c4933b26be33db00207c6&#45;&gt;e48508c65dcc44f29db3d283ddcfd5c0</title>
<path fill="none" stroke="#7b8894" d="M36,-359.23C36,-424.95 36,-536 36,-536 36,-536 88.66,-536 125.89,-536"/>
</g>
<!-- d0b90115968243eb84957e9b7c449ef4 -->
<g id="node9" class="node">
<title>d0b90115968243eb84957e9b7c449ef4</title>
<path fill="none" stroke="black" d="M186,-135C186,-135 138,-135 138,-135 132,-135 126,-129 126,-123 126,-123 126,-53 126,-53 126,-47 132,-41 138,-41 138,-41 186,-41 186,-41 192,-41 198,-47 198,-53 198,-53 198,-123 198,-123 198,-129 192,-135 186,-135"/>
<image xlink:href="/Users/gtema/workspace/otc/system-config/.tox/docs/lib/python3.8/site-packages/resources/onprem/compute/server.png" width="72px" height="72px" preserveAspectRatio="xMinYMin meet" x="126" y="-124"/>
<text text-anchor="middle" x="162" y="-44.6" font-family="Sans-Serif" font-size="13.00" fill="#2d3436">scheduler</text>
</g>
<!-- 9b8e0fa7e67c4933b26be33db00207c6&#45;&gt;d0b90115968243eb84957e9b7c449ef4 -->
<g id="edge17" class="edge">
<title>9b8e0fa7e67c4933b26be33db00207c6&#45;&gt;d0b90115968243eb84957e9b7c449ef4</title>
<path fill="none" stroke="#7b8894" d="M36,-264.77C36,-199.05 36,-88 36,-88 36,-88 88.66,-88 125.89,-88"/>
</g>
<!-- 4884d4af0894434aafa51c184185cd04 -->
<g id="node2" class="node">
<title>4884d4af0894434aafa51c184185cd04</title>
<path fill="none" stroke="black" d="M438,-471C438,-471 390,-471 390,-471 384,-471 378,-465 378,-459 378,-459 378,-389 378,-389 378,-383 384,-377 390,-377 390,-377 438,-377 438,-377 444,-377 450,-383 450,-389 450,-389 450,-459 450,-459 450,-465 444,-471 438,-471"/>
<image xlink:href="/Users/gtema/workspace/otc/system-config/.tox/docs/lib/python3.8/site-packages/resources/openstack/storage/swift.png" width="72px" height="72px" preserveAspectRatio="xMinYMin meet" x="378" y="-460"/>
<text text-anchor="middle" x="414" y="-380.6" font-family="Sans-Serif" font-size="13.00" fill="#2d3436">logs</text>
</g>
<!-- f50ff5f10ae3464e9c43373ed71e3b4d -->
<g id="node12" class="node">
<title>f50ff5f10ae3464e9c43373ed71e3b4d</title>
<path fill="none" stroke="black" d="M564,-415C564,-415 516,-415 516,-415 510,-415 504,-409 504,-403 504,-403 504,-333 504,-333 504,-327 510,-321 516,-321 516,-321 564,-321 564,-321 570,-321 576,-327 576,-333 576,-333 576,-403 576,-403 576,-409 570,-415 564,-415"/>
<image xlink:href="/Users/gtema/workspace/otc/system-config/.tox/docs/lib/python3.8/site-packages/resources/onprem/monitoring/grafana.png" width="72px" height="74.8125px" preserveAspectRatio="xMinYMin meet" x="504" y="-405.406"/>
<text text-anchor="middle" x="540" y="-324.6" font-family="Sans-Serif" font-size="13.00" fill="#2d3436">dashboard</text>
</g>
<!-- 4884d4af0894434aafa51c184185cd04&#45;&gt;f50ff5f10ae3464e9c43373ed71e3b4d -->
<g id="edge19" class="edge">
<title>4884d4af0894434aafa51c184185cd04&#45;&gt;f50ff5f10ae3464e9c43373ed71e3b4d</title>
<path fill="none" stroke="#7b8894" d="M450.11,-396C466.98,-396 487.02,-396 503.89,-396"/>
</g>
<!-- f275b808569e44a298b4fd6389e12088 -->
<g id="node3" class="node">
<title>f275b808569e44a298b4fd6389e12088</title>
<path fill="none" stroke="black" d="M312,-359C312,-359 264,-359 264,-359 258,-359 252,-353 252,-347 252,-347 252,-277 252,-277 252,-271 258,-265 264,-265 264,-265 312,-265 312,-265 318,-265 324,-271 324,-277 324,-277 324,-347 324,-347 324,-353 318,-359 312,-359"/>
<image xlink:href="/Users/gtema/workspace/otc/system-config/.tox/docs/lib/python3.8/site-packages/resources/onprem/database/postgresql.png" width="72px" height="72px" preserveAspectRatio="xMinYMin meet" x="252" y="-348"/>
<text text-anchor="middle" x="288" y="-268.6" font-family="Sans-Serif" font-size="13.00" fill="#2d3436">Results DB</text>
</g>
<!-- f275b808569e44a298b4fd6389e12088&#45;&gt;f50ff5f10ae3464e9c43373ed71e3b4d -->
<g id="edge20" class="edge">
<title>f275b808569e44a298b4fd6389e12088&#45;&gt;f50ff5f10ae3464e9c43373ed71e3b4d</title>
<path fill="none" stroke="#7b8894" d="M324.11,-340C372.01,-340 456.09,-340 503.96,-340"/>
</g>
<!-- e48508c65dcc44f29db3d283ddcfd5c0&#45;&gt;4884d4af0894434aafa51c184185cd04 -->
<g id="edge4" class="edge">
<title>e48508c65dcc44f29db3d283ddcfd5c0&#45;&gt;4884d4af0894434aafa51c184185cd04</title>
<path fill="none" stroke="#7b8894" d="M184,-488.83C184,-458.22 184,-424 184,-424 184,-424 367.81,-424 367.81,-424"/>
<polygon fill="#7b8894" stroke="#7b8894" points="367.81,-427.5 377.81,-424 367.81,-420.5 367.81,-427.5"/>
</g>
<!-- e48508c65dcc44f29db3d283ddcfd5c0&#45;&gt;f275b808569e44a298b4fd6389e12088 -->
<g id="edge5" class="edge">
<title>e48508c65dcc44f29db3d283ddcfd5c0&#45;&gt;f275b808569e44a298b4fd6389e12088</title>
<path fill="none" stroke="#7b8894" d="M170,-488.99C170,-427.54 170,-327.67 170,-327.67 170,-327.67 241.95,-327.67 241.95,-327.67"/>
<polygon fill="#7b8894" stroke="#7b8894" points="241.95,-331.17 251.95,-327.67 241.95,-324.17 241.95,-331.17"/>
</g>
<!-- 0652be08b94e4ae192b70d5d90f30227 -->
<g id="node5" class="node">
<title>0652be08b94e4ae192b70d5d90f30227</title>
<path fill="none" stroke="black" d="M312,-583C312,-583 264,-583 264,-583 258,-583 252,-577 252,-571 252,-571 252,-501 252,-501 252,-495 258,-489 264,-489 264,-489 312,-489 312,-489 318,-489 324,-495 324,-501 324,-501 324,-571 324,-571 324,-577 318,-583 312,-583"/>
<image xlink:href="/Users/gtema/workspace/otc/system-config/.tox/docs/lib/python3.8/site-packages/resources/onprem/compute/server.png" width="72px" height="72px" preserveAspectRatio="xMinYMin meet" x="252" y="-572"/>
<text text-anchor="middle" x="288" y="-492.6" font-family="Sans-Serif" font-size="13.00" fill="#2d3436">executor1</text>
</g>
<!-- e48508c65dcc44f29db3d283ddcfd5c0&#45;&gt;0652be08b94e4ae192b70d5d90f30227 -->
<g id="edge1" class="edge">
<title>e48508c65dcc44f29db3d283ddcfd5c0&#45;&gt;0652be08b94e4ae192b70d5d90f30227</title>
<path fill="none" stroke="#7b8894" d="M198.11,-536C214.98,-536 235.02,-536 251.89,-536"/>
</g>
<!-- defe015e60a6441d866ce2f40b363c91 -->
<g id="node6" class="node">
<title>defe015e60a6441d866ce2f40b363c91</title>
<path fill="none" stroke="black" d="M312,-720C312,-720 264,-720 264,-720 258,-720 252,-714 252,-708 252,-708 252,-638 252,-638 252,-632 258,-626 264,-626 264,-626 312,-626 312,-626 318,-626 324,-632 324,-638 324,-638 324,-708 324,-708 324,-714 318,-720 312,-720"/>
<image xlink:href="/Users/gtema/workspace/otc/system-config/.tox/docs/lib/python3.8/site-packages/resources/onprem/compute/server.png" width="72px" height="72px" preserveAspectRatio="xMinYMin meet" x="252" y="-709"/>
<text text-anchor="middle" x="288" y="-629.6" font-family="Sans-Serif" font-size="13.00" fill="#2d3436">executor2</text>
</g>
<!-- e48508c65dcc44f29db3d283ddcfd5c0&#45;&gt;defe015e60a6441d866ce2f40b363c91 -->
<g id="edge2" class="edge">
<title>e48508c65dcc44f29db3d283ddcfd5c0&#45;&gt;defe015e60a6441d866ce2f40b363c91</title>
<path fill="none" stroke="#7b8894" d="M174,-583.15C174,-622.78 174,-673 174,-673 174,-673 218.53,-673 251.93,-673"/>
</g>
<!-- 49c331cff8fd406e904b11b8db395512 -->
<g id="node7" class="node">
<title>49c331cff8fd406e904b11b8db395512</title>
<path fill="none" stroke="black" d="M312,-857C312,-857 264,-857 264,-857 258,-857 252,-851 252,-845 252,-845 252,-775 252,-775 252,-769 258,-763 264,-763 264,-763 312,-763 312,-763 318,-763 324,-769 324,-775 324,-775 324,-845 324,-845 324,-851 318,-857 312,-857"/>
<image xlink:href="/Users/gtema/workspace/otc/system-config/.tox/docs/lib/python3.8/site-packages/resources/openstack/compute/nova.png" width="72px" height="72px" preserveAspectRatio="xMinYMin meet" x="252" y="-846"/>
<text text-anchor="middle" x="288" y="-766.6" font-family="Sans-Serif" font-size="13.00" fill="#2d3436">executor3</text>
</g>
<!-- e48508c65dcc44f29db3d283ddcfd5c0&#45;&gt;49c331cff8fd406e904b11b8db395512 -->
<g id="edge3" class="edge">
<title>e48508c65dcc44f29db3d283ddcfd5c0&#45;&gt;49c331cff8fd406e904b11b8db395512</title>
<path fill="none" stroke="#7b8894" d="M150,-583.1C150,-661.44 150,-810 150,-810 150,-810 210.86,-810 251.74,-810"/>
</g>
<!-- 0652be08b94e4ae192b70d5d90f30227&#45;&gt;4884d4af0894434aafa51c184185cd04 -->
<g id="edge6" class="edge">
<title>0652be08b94e4ae192b70d5d90f30227&#45;&gt;4884d4af0894434aafa51c184185cd04</title>
<path fill="none" stroke="#7b8894" d="M324.11,-520.33C361.34,-520.33 414,-520.33 414,-520.33 414,-520.33 414,-481.04 414,-481.04"/>
<polygon fill="#7b8894" stroke="#7b8894" points="417.5,-481.04 414,-471.04 410.5,-481.04 417.5,-481.04"/>
</g>
<!-- efab488e82e94ca3a7c2ae6e26c97675 -->
<g id="node8" class="node">
<title>efab488e82e94ca3a7c2ae6e26c97675</title>
<path fill="none" stroke="black" d="M438,-720C438,-720 390,-720 390,-720 384,-720 378,-714 378,-708 378,-708 378,-638 378,-638 378,-632 384,-626 390,-626 390,-626 438,-626 438,-626 444,-626 450,-632 450,-638 450,-638 450,-708 450,-708 450,-714 444,-720 438,-720"/>
<text text-anchor="middle" x="414" y="-629.6" font-family="Sans-Serif" font-size="13.00" fill="#2d3436">project</text>
</g>
<!-- 0652be08b94e4ae192b70d5d90f30227&#45;&gt;efab488e82e94ca3a7c2ae6e26c97675 -->
<g id="edge10" class="edge">
<title>0652be08b94e4ae192b70d5d90f30227&#45;&gt;efab488e82e94ca3a7c2ae6e26c97675</title>
<path fill="none" stroke="#7b8894" d="M324.26,-551.67C355.64,-551.67 396,-551.67 396,-551.67 396,-551.67 396,-615.74 396,-615.74"/>
<polygon fill="#7b8894" stroke="#7b8894" points="392.5,-615.74 396,-625.74 399.5,-615.74 392.5,-615.74"/>
</g>
<!-- defe015e60a6441d866ce2f40b363c91&#45;&gt;4884d4af0894434aafa51c184185cd04 -->
<g id="edge7" class="edge">
<title>defe015e60a6441d866ce2f40b363c91&#45;&gt;4884d4af0894434aafa51c184185cd04</title>
<path fill="none" stroke="#7b8894" d="M288,-625.8C288,-613.93 288,-604.5 288,-604.5 288,-604.5 432,-604.5 432,-604.5 432,-604.5 432,-481.42 432,-481.42"/>
<polygon fill="#7b8894" stroke="#7b8894" points="435.5,-481.42 432,-471.42 428.5,-481.42 435.5,-481.42"/>
</g>
<!-- defe015e60a6441d866ce2f40b363c91&#45;&gt;efab488e82e94ca3a7c2ae6e26c97675 -->
<g id="edge11" class="edge">
<title>defe015e60a6441d866ce2f40b363c91&#45;&gt;efab488e82e94ca3a7c2ae6e26c97675</title>
<path fill="none" stroke="#7b8894" d="M324.11,-673C324.11,-673 367.89,-673 367.89,-673"/>
<polygon fill="#7b8894" stroke="#7b8894" points="367.89,-676.5 377.89,-673 367.89,-669.5 367.89,-676.5"/>
</g>
<!-- 49c331cff8fd406e904b11b8db395512&#45;&gt;4884d4af0894434aafa51c184185cd04 -->
<g id="edge8" class="edge">
<title>49c331cff8fd406e904b11b8db395512&#45;&gt;4884d4af0894434aafa51c184185cd04</title>
<path fill="none" stroke="#7b8894" d="M324.28,-794.33C338.29,-794.33 351,-794.33 351,-794.33 351,-794.33 351,-447.5 351,-447.5 351,-447.5 367.72,-447.5 367.72,-447.5"/>
<polygon fill="#7b8894" stroke="#7b8894" points="367.72,-451 377.72,-447.5 367.72,-444 367.72,-451"/>
</g>
<!-- 49c331cff8fd406e904b11b8db395512&#45;&gt;efab488e82e94ca3a7c2ae6e26c97675 -->
<g id="edge12" class="edge">
<title>49c331cff8fd406e904b11b8db395512&#45;&gt;efab488e82e94ca3a7c2ae6e26c97675</title>
<path fill="none" stroke="#7b8894" d="M324.11,-825.67C361.34,-825.67 414,-825.67 414,-825.67 414,-825.67 414,-730.05 414,-730.05"/>
<polygon fill="#7b8894" stroke="#7b8894" points="417.5,-730.05 414,-720.05 410.5,-730.05 417.5,-730.05"/>
</g>
<!-- d0b90115968243eb84957e9b7c449ef4&#45;&gt;4884d4af0894434aafa51c184185cd04 -->
<g id="edge14" class="edge">
<title>d0b90115968243eb84957e9b7c449ef4&#45;&gt;4884d4af0894434aafa51c184185cd04</title>
<path fill="none" stroke="#7b8894" d="M141,-135.12C141,-222.42 141,-400.5 141,-400.5 141,-400.5 367.75,-400.5 367.75,-400.5"/>
<polygon fill="#7b8894" stroke="#7b8894" points="367.75,-404 377.75,-400.5 367.75,-397 367.75,-404"/>
</g>
<!-- d0b90115968243eb84957e9b7c449ef4&#45;&gt;f275b808569e44a298b4fd6389e12088 -->
<g id="edge16" class="edge">
<title>d0b90115968243eb84957e9b7c449ef4&#45;&gt;f275b808569e44a298b4fd6389e12088</title>
<path fill="none" stroke="#7b8894" d="M155,-135.01C155,-196.46 155,-296.33 155,-296.33 155,-296.33 241.66,-296.33 241.66,-296.33"/>
<polygon fill="#7b8894" stroke="#7b8894" points="241.66,-299.83 251.66,-296.33 241.66,-292.83 241.66,-299.83"/>
</g>
<!-- 02d579a588214986874774bb1bdf966a -->
<g id="node10" class="node">
<title>02d579a588214986874774bb1bdf966a</title>
<path fill="none" stroke="black" d="M312,-135C312,-135 264,-135 264,-135 258,-135 252,-129 252,-123 252,-123 252,-53 252,-53 252,-47 258,-41 264,-41 264,-41 312,-41 312,-41 318,-41 324,-47 324,-53 324,-53 324,-123 324,-123 324,-129 318,-135 312,-135"/>
<image xlink:href="/Users/gtema/workspace/otc/system-config/.tox/docs/lib/python3.8/site-packages/resources/onprem/compute/server.png" width="72px" height="72px" preserveAspectRatio="xMinYMin meet" x="252" y="-124"/>
<text text-anchor="middle" x="288" y="-44.6" font-family="Sans-Serif" font-size="13.00" fill="#2d3436">executor2</text>
</g>
<!-- d0b90115968243eb84957e9b7c449ef4&#45;&gt;02d579a588214986874774bb1bdf966a -->
<g id="edge13" class="edge">
<title>d0b90115968243eb84957e9b7c449ef4&#45;&gt;02d579a588214986874774bb1bdf966a</title>
<path fill="none" stroke="#7b8894" d="M198.11,-88C214.98,-88 235.02,-88 251.89,-88"/>
</g>
<!-- 02d579a588214986874774bb1bdf966a&#45;&gt;4884d4af0894434aafa51c184185cd04 -->
<g id="edge15" class="edge">
<title>02d579a588214986874774bb1bdf966a&#45;&gt;4884d4af0894434aafa51c184185cd04</title>
<path fill="none" stroke="#7b8894" d="M288,-135.17C288,-165.78 288,-200 288,-200 288,-200 414,-200 414,-200 414,-200 414,-366.77 414,-366.77"/>
<polygon fill="#7b8894" stroke="#7b8894" points="410.5,-366.77 414,-376.77 417.5,-366.77 410.5,-366.77"/>
</g>
<!-- 012a93cce92847e6b7fa03578b7de09d -->
<g id="node11" class="node">
<title>012a93cce92847e6b7fa03578b7de09d</title>
<path fill="none" stroke="black" d="M438,-135C438,-135 390,-135 390,-135 384,-135 378,-129 378,-123 378,-123 378,-53 378,-53 378,-47 384,-41 390,-41 390,-41 438,-41 438,-41 444,-41 450,-47 450,-53 450,-53 450,-123 450,-123 450,-129 444,-135 438,-135"/>
<text text-anchor="middle" x="414" y="-44.6" font-family="Sans-Serif" font-size="13.00" fill="#2d3436">project</text>
</g>
<!-- 02d579a588214986874774bb1bdf966a&#45;&gt;012a93cce92847e6b7fa03578b7de09d -->
<g id="edge18" class="edge">
<title>02d579a588214986874774bb1bdf966a&#45;&gt;012a93cce92847e6b7fa03578b7de09d</title>
<path fill="none" stroke="#7b8894" d="M324.11,-88C324.11,-88 367.89,-88 367.89,-88"/>
<polygon fill="#7b8894" stroke="#7b8894" points="367.89,-91.5 377.89,-88 367.89,-84.5 367.89,-91.5"/>
</g>
</g>
</svg>
