<?xml version="1.0" encoding="UTF-8" standalone="no"?>
<!DOCTYPE svg PUBLIC "-//W3C//DTD SVG 1.1//EN"
 "http://www.w3.org/Graphics/SVG/1.1/DTD/svg11.dtd">
<!-- Generated by graphviz version 2.49.3 (20211023.0002)
 -->
<!-- Title: Reverse Proxy Pages: 1 -->
<svg width="630pt" height="728pt"
 viewBox="0.00 0.00 630.00 728.00" xmlns="http://www.w3.org/2000/svg" xmlns:xlink="http://www.w3.org/1999/xlink">
<g id="graph0" class="graph" transform="scale(1 1) rotate(0) translate(144 584)">
<title>Reverse Proxy</title>
<text text-anchor="middle" x="171" y="-7" font-family="Sans-Serif" font-size="10.00" fill="#2d3436">Reverse Proxy</text>
<g id="clust1" class="cluster">
<title>cluster_ReverseProxy</title>
<path fill="#e5f5fd" stroke="#aeb6be" d="M256,-27C256,-27 324,-27 324,-27 330,-27 336,-33 336,-39 336,-39 336,-420 336,-420 336,-426 330,-432 324,-432 324,-432 256,-432 256,-432 250,-432 244,-426 244,-420 244,-420 244,-39 244,-39 244,-33 250,-27 256,-27"/>
<text text-anchor="middle" x="290" y="-418.4" font-family="Sans-Serif" font-size="12.00" fill="#2d3436">ReverseProxy</text>
</g>
<!-- f29759a5370c4083a220b1de5fae1acf -->
<g id="node1" class="node">
<title>f29759a5370c4083a220b1de5fae1acf</title>
<path fill="none" stroke="black" d="M186,-266C186,-266 138,-266 138,-266 132,-266 126,-260 126,-254 126,-254 126,-184 126,-184 126,-178 132,-172 138,-172 138,-172 186,-172 186,-172 192,-172 198,-178 198,-184 198,-184 198,-254 198,-254 198,-260 192,-266 186,-266"/>
<image xlink:href="/Users/gtema/workspace/otc/system-config/.tox/docs/lib/python3.8/site-packages/resources/openstack/networking/octavia.png" width="72px" height="59.9062px" preserveAspectRatio="xMinYMin meet" x="126" y="-248.953"/>
<text text-anchor="middle" x="162" y="-175" font-family="Sans-Serif" font-size="10.00" fill="#2d3436">Load Balancer</text>
</g>
<!-- cc1baf3b41904361972756f1aab7f8ad -->
<g id="node3" class="node">
<title>cc1baf3b41904361972756f1aab7f8ad</title>
<path fill="none" stroke="black" d="M314,-403C314,-403 266,-403 266,-403 260,-403 254,-397 254,-391 254,-391 254,-321 254,-321 254,-315 260,-309 266,-309 266,-309 314,-309 314,-309 320,-309 326,-315 326,-321 326,-321 326,-391 326,-391 326,-397 320,-403 314,-403"/>
<image xlink:href="/Users/gtema/workspace/otc/system-config/.tox/docs/lib/python3.8/site-packages/resources/onprem/compute/server.png" width="72px" height="72px" preserveAspectRatio="xMinYMin meet" x="254" y="-392"/>
<text text-anchor="middle" x="290" y="-312" font-family="Sans-Serif" font-size="10.00" fill="#2d3436">proxy1.eco.tsi&#45;dev.otc&#45;service.com</text>
</g>
<!-- f29759a5370c4083a220b1de5fae1acf&#45;&gt;cc1baf3b41904361972756f1aab7f8ad -->
<g id="edge2" class="edge">
<title>f29759a5370c4083a220b1de5fae1acf&#45;&gt;cc1baf3b41904361972756f1aab7f8ad</title>
<path fill="none" stroke="#7b8894" d="M162,-266.15C162,-305.78 162,-356 162,-356 162,-356 243.66,-356 243.66,-356"/>
<polygon fill="#7b8894" stroke="#7b8894" points="243.66,-359.5 253.66,-356 243.66,-352.5 243.66,-359.5"/>
</g>
<!-- 4d01331ffe5a42798eddb8b42d127abc -->
<g id="node4" class="node">
<title>4d01331ffe5a42798eddb8b42d127abc</title>
<path fill="none" stroke="black" d="M314,-266C314,-266 266,-266 266,-266 260,-266 254,-260 254,-254 254,-254 254,-184 254,-184 254,-178 260,-172 266,-172 266,-172 314,-172 314,-172 320,-172 326,-178 326,-184 326,-184 326,-254 326,-254 326,-260 320,-266 314,-266"/>
<image xlink:href="/Users/gtema/workspace/otc/system-config/.tox/docs/lib/python3.8/site-packages/resources/onprem/compute/server.png" width="72px" height="72px" preserveAspectRatio="xMinYMin meet" x="254" y="-255"/>
<text text-anchor="middle" x="290" y="-175" font-family="Sans-Serif" font-size="10.00" fill="#2d3436">proxy2.eco.tsi&#45;dev.otc&#45;service.com</text>
</g>
<!-- f29759a5370c4083a220b1de5fae1acf&#45;&gt;4d01331ffe5a42798eddb8b42d127abc -->
<g id="edge3" class="edge">
<title>f29759a5370c4083a220b1de5fae1acf&#45;&gt;4d01331ffe5a42798eddb8b42d127abc</title>
<path fill="none" stroke="#7b8894" d="M198.34,-219C198.34,-219 243.57,-219 243.57,-219"/>
<polygon fill="#7b8894" stroke="#7b8894" points="243.57,-222.5 253.57,-219 243.57,-215.5 243.57,-222.5"/>
</g>
<!-- 6e397fff8d5a4dbb9677f669a5712e06 -->
<g id="node5" class="node">
<title>6e397fff8d5a4dbb9677f669a5712e06</title>
<path fill="none" stroke="black" d="M314,-129C314,-129 266,-129 266,-129 260,-129 254,-123 254,-117 254,-117 254,-47 254,-47 254,-41 260,-35 266,-35 266,-35 314,-35 314,-35 320,-35 326,-41 326,-47 326,-47 326,-117 326,-117 326,-123 320,-129 314,-129"/>
<image xlink:href="/Users/gtema/workspace/otc/system-config/.tox/docs/lib/python3.8/site-packages/resources/onprem/compute/server.png" width="72px" height="72px" preserveAspectRatio="xMinYMin meet" x="254" y="-118"/>
<text text-anchor="middle" x="290" y="-38" font-family="Sans-Serif" font-size="10.00" fill="#2d3436">web3.eco.tsi&#45;dev.otc&#45;service.com</text>
</g>
<!-- f29759a5370c4083a220b1de5fae1acf&#45;&gt;6e397fff8d5a4dbb9677f669a5712e06 -->
<g id="edge4" class="edge">
<title>f29759a5370c4083a220b1de5fae1acf&#45;&gt;6e397fff8d5a4dbb9677f669a5712e06</title>
<path fill="none" stroke="#7b8894" d="M162,-171.85C162,-132.22 162,-82 162,-82 162,-82 243.66,-82 243.66,-82"/>
<polygon fill="#7b8894" stroke="#7b8894" points="243.66,-85.5 253.66,-82 243.66,-78.5 243.66,-85.5"/>
</g>
<!-- fd0958bd24ee417d82c86339ae551261 -->
<g id="node2" class="node">
<title>fd0958bd24ee417d82c86339ae551261</title>
<path fill="none" stroke="black" d="M60,-266C60,-266 12,-266 12,-266 6,-266 0,-260 0,-254 0,-254 0,-184 0,-184 0,-178 6,-172 12,-172 12,-172 60,-172 60,-172 66,-172 72,-178 72,-184 72,-184 72,-254 72,-254 72,-260 66,-266 60,-266"/>
<image xlink:href="/Users/gtema/workspace/otc/system-config/.tox/docs/lib/python3.8/site-packages/resources/onprem/client/client.png" width="72px" height="72px" preserveAspectRatio="xMinYMin meet" x="0" y="-255"/>
<text text-anchor="middle" x="36" y="-175" font-family="Sans-Serif" font-size="10.00" fill="#2d3436">User</text>
</g>
<!-- fd0958bd24ee417d82c86339ae551261&#45;&gt;f29759a5370c4083a220b1de5fae1acf -->
<g id="edge1" class="edge">
<title>fd0958bd24ee417d82c86339ae551261&#45;&gt;f29759a5370c4083a220b1de5fae1acf</title>
<path fill="none" stroke="#7b8894" d="M72.11,-219C72.11,-219 115.89,-219 115.89,-219"/>
<polygon fill="#7b8894" stroke="#7b8894" points="115.89,-222.5 125.89,-219 115.89,-215.5 115.89,-222.5"/>
</g>
</g>
</svg>
